<mxfile host="app.diagrams.net" modified="2022-05-14T08:42:06.939Z" agent="5.0 (Windows NT 10.0; Win64; x64) AppleWebKit/537.36 (KHTML, like Gecko) Chrome/101.0.4951.64 Safari/537.36" etag="tBysHpSh-thWBD4TWCug" version="18.0.3" type="github">
  <diagram id="TyiRwvARTlcHj0YqI167" name="Page-1">
    <mxGraphModel dx="1438" dy="947" grid="1" gridSize="12" guides="1" tooltips="1" connect="1" arrows="1" fold="1" page="0" pageScale="1" pageWidth="827" pageHeight="1169" math="0" shadow="0">
      <root>
        <mxCell id="0" />
        <mxCell id="1" parent="0" />
        <mxCell id="M0y0zlbj2SUJRoKViv4J-130" value="&lt;div style=&quot;font-family: Consolas, &amp;quot;Courier New&amp;quot;, monospace; line-height: 19px;&quot;&gt;&lt;span style=&quot;color: rgb(128, 0, 0); font-weight: bold;&quot;&gt;&lt;font style=&quot;font-size: 18px;&quot;&gt;input:&amp;nbsp;0011&amp;nbsp;1000&amp;nbsp;1000&amp;nbsp;1101&amp;nbsp;0100&amp;nbsp;1010&amp;nbsp;0100&amp;nbsp;1011&lt;/font&gt;&lt;/span&gt;&lt;/div&gt;" style="text;html=1;strokeColor=none;fillColor=none;align=center;verticalAlign=middle;whiteSpace=wrap;rounded=0;sketch=1;" vertex="1" parent="1">
          <mxGeometry x="-60" y="-120" width="476" height="26" as="geometry" />
        </mxCell>
        <mxCell id="M0y0zlbj2SUJRoKViv4J-140" value="" style="edgeStyle=orthogonalEdgeStyle;sketch=1;orthogonalLoop=1;jettySize=auto;html=1;fontSize=18;" edge="1" parent="1" source="M0y0zlbj2SUJRoKViv4J-135" target="M0y0zlbj2SUJRoKViv4J-139">
          <mxGeometry relative="1" as="geometry" />
        </mxCell>
        <mxCell id="M0y0zlbj2SUJRoKViv4J-135" value="&lt;span style=&quot;font-family: Consolas, &amp;quot;Courier New&amp;quot;, monospace; color: rgb(0, 112, 193);&quot;&gt;(n&amp;nbsp;&lt;/span&gt;&lt;span style=&quot;font-family: Consolas, &amp;quot;Courier New&amp;quot;, monospace;&quot;&gt;&amp;amp;&lt;/span&gt;&lt;span style=&quot;font-family: Consolas, &amp;quot;Courier New&amp;quot;, monospace; color: rgb(0, 112, 193);&quot;&gt;&amp;nbsp;&lt;/span&gt;&lt;span style=&quot;font-family: Consolas, &amp;quot;Courier New&amp;quot;, monospace; color: rgb(9, 134, 88);&quot;&gt;0x55555555&lt;/span&gt;&lt;span style=&quot;font-family: Consolas, &amp;quot;Courier New&amp;quot;, monospace; color: rgb(0, 112, 193);&quot;&gt;)&lt;/span&gt;" style="text;html=1;strokeColor=none;fillColor=none;align=center;verticalAlign=middle;whiteSpace=wrap;rounded=0;sketch=1;fontSize=18;" vertex="1" parent="1">
          <mxGeometry x="-58" y="-26" width="170" height="31" as="geometry" />
        </mxCell>
        <mxCell id="M0y0zlbj2SUJRoKViv4J-146" value="" style="edgeStyle=orthogonalEdgeStyle;sketch=1;orthogonalLoop=1;jettySize=auto;html=1;fontSize=18;" edge="1" parent="1" source="M0y0zlbj2SUJRoKViv4J-136" target="M0y0zlbj2SUJRoKViv4J-145">
          <mxGeometry relative="1" as="geometry" />
        </mxCell>
        <mxCell id="M0y0zlbj2SUJRoKViv4J-136" value="&lt;span style=&quot;font-family: Consolas, &amp;quot;Courier New&amp;quot;, monospace; color: rgb(0, 112, 193);&quot;&gt;(n&amp;nbsp;&lt;/span&gt;&lt;span style=&quot;font-family: Consolas, &amp;quot;Courier New&amp;quot;, monospace;&quot;&gt;&amp;gt;&amp;gt;&lt;/span&gt;&lt;span style=&quot;font-family: Consolas, &amp;quot;Courier New&amp;quot;, monospace; color: rgb(0, 112, 193);&quot;&gt;&amp;nbsp;&lt;/span&gt;&lt;span style=&quot;font-family: Consolas, &amp;quot;Courier New&amp;quot;, monospace; color: rgb(9, 134, 88);&quot;&gt;1&lt;/span&gt;&lt;span style=&quot;font-family: Consolas, &amp;quot;Courier New&amp;quot;, monospace; color: rgb(0, 112, 193);&quot;&gt;)&lt;/span&gt;" style="text;html=1;strokeColor=none;fillColor=none;align=center;verticalAlign=middle;whiteSpace=wrap;rounded=0;sketch=1;fontSize=18;" vertex="1" parent="1">
          <mxGeometry x="-58" y="-74" width="93" height="32" as="geometry" />
        </mxCell>
        <mxCell id="M0y0zlbj2SUJRoKViv4J-149" value="" style="edgeStyle=orthogonalEdgeStyle;sketch=1;orthogonalLoop=1;jettySize=auto;html=1;fontSize=14;" edge="1" parent="1" source="M0y0zlbj2SUJRoKViv4J-137" target="M0y0zlbj2SUJRoKViv4J-148">
          <mxGeometry relative="1" as="geometry" />
        </mxCell>
        <mxCell id="M0y0zlbj2SUJRoKViv4J-137" value="&lt;span style=&quot;font-family: Consolas, &amp;quot;Courier New&amp;quot;, monospace; color: rgb(0, 112, 193);&quot;&gt;((n&amp;nbsp;&lt;/span&gt;&lt;span style=&quot;font-family: Consolas, &amp;quot;Courier New&amp;quot;, monospace;&quot;&gt;&amp;gt;&amp;gt;&lt;/span&gt;&lt;span style=&quot;font-family: Consolas, &amp;quot;Courier New&amp;quot;, monospace; color: rgb(0, 112, 193);&quot;&gt;&amp;nbsp;&lt;/span&gt;&lt;span style=&quot;font-family: Consolas, &amp;quot;Courier New&amp;quot;, monospace; color: rgb(9, 134, 88);&quot;&gt;1&lt;/span&gt;&lt;span style=&quot;font-family: Consolas, &amp;quot;Courier New&amp;quot;, monospace; color: rgb(0, 112, 193);&quot;&gt;)&amp;nbsp;&lt;/span&gt;&lt;span style=&quot;font-family: Consolas, &amp;quot;Courier New&amp;quot;, monospace;&quot;&gt;&amp;amp;&lt;/span&gt;&lt;span style=&quot;font-family: Consolas, &amp;quot;Courier New&amp;quot;, monospace; color: rgb(0, 112, 193);&quot;&gt;&amp;nbsp;&lt;/span&gt;&lt;span style=&quot;font-family: Consolas, &amp;quot;Courier New&amp;quot;, monospace; color: rgb(9, 134, 88);&quot;&gt;0x55555555&lt;/span&gt;&lt;span style=&quot;font-family: Consolas, &amp;quot;Courier New&amp;quot;, monospace; color: rgb(0, 112, 193);&quot;&gt;)&lt;/span&gt;" style="text;html=1;strokeColor=none;fillColor=none;align=center;verticalAlign=middle;whiteSpace=wrap;rounded=0;sketch=1;fontSize=18;" vertex="1" parent="1">
          <mxGeometry x="-58" y="22" width="238" height="33" as="geometry" />
        </mxCell>
        <mxCell id="M0y0zlbj2SUJRoKViv4J-154" style="edgeStyle=orthogonalEdgeStyle;sketch=1;orthogonalLoop=1;jettySize=auto;html=1;entryX=0;entryY=0.5;entryDx=0;entryDy=0;fontSize=14;" edge="1" parent="1" source="M0y0zlbj2SUJRoKViv4J-138" target="M0y0zlbj2SUJRoKViv4J-152">
          <mxGeometry relative="1" as="geometry" />
        </mxCell>
        <mxCell id="M0y0zlbj2SUJRoKViv4J-138" value="&lt;span style=&quot;font-family: Consolas, &amp;quot;Courier New&amp;quot;, monospace; color: rgb(0, 112, 193);&quot;&gt;(n&amp;nbsp;&lt;/span&gt;&lt;span style=&quot;font-family: Consolas, &amp;quot;Courier New&amp;quot;, monospace;&quot;&gt;&amp;amp;&lt;/span&gt;&lt;span style=&quot;font-family: Consolas, &amp;quot;Courier New&amp;quot;, monospace; color: rgb(0, 112, 193);&quot;&gt;&amp;nbsp;&lt;/span&gt;&lt;span style=&quot;font-family: Consolas, &amp;quot;Courier New&amp;quot;, monospace; color: rgb(9, 134, 88);&quot;&gt;0x55555555&lt;/span&gt;&lt;span style=&quot;font-family: Consolas, &amp;quot;Courier New&amp;quot;, monospace; color: rgb(0, 112, 193);&quot;&gt;)&amp;nbsp;&lt;/span&gt;&lt;span style=&quot;font-family: Consolas, &amp;quot;Courier New&amp;quot;, monospace;&quot;&gt;+&lt;/span&gt;&lt;span style=&quot;font-family: Consolas, &amp;quot;Courier New&amp;quot;, monospace; color: rgb(0, 112, 193);&quot;&gt;&amp;nbsp;((n&amp;nbsp;&lt;/span&gt;&lt;span style=&quot;font-family: Consolas, &amp;quot;Courier New&amp;quot;, monospace;&quot;&gt;&amp;gt;&amp;gt;&lt;/span&gt;&lt;span style=&quot;font-family: Consolas, &amp;quot;Courier New&amp;quot;, monospace; color: rgb(0, 112, 193);&quot;&gt;&amp;nbsp;&lt;/span&gt;&lt;span style=&quot;font-family: Consolas, &amp;quot;Courier New&amp;quot;, monospace; color: rgb(9, 134, 88);&quot;&gt;1&lt;/span&gt;&lt;span style=&quot;font-family: Consolas, &amp;quot;Courier New&amp;quot;, monospace; color: rgb(0, 112, 193);&quot;&gt;)&amp;nbsp;&lt;/span&gt;&lt;span style=&quot;font-family: Consolas, &amp;quot;Courier New&amp;quot;, monospace;&quot;&gt;&amp;amp;&lt;/span&gt;&lt;span style=&quot;font-family: Consolas, &amp;quot;Courier New&amp;quot;, monospace; color: rgb(0, 112, 193);&quot;&gt;&amp;nbsp;&lt;/span&gt;&lt;span style=&quot;font-family: Consolas, &amp;quot;Courier New&amp;quot;, monospace; color: rgb(9, 134, 88);&quot;&gt;0x55555555&lt;/span&gt;&lt;span style=&quot;font-family: Consolas, &amp;quot;Courier New&amp;quot;, monospace; color: rgb(0, 112, 193);&quot;&gt;)&lt;/span&gt;" style="text;html=1;strokeColor=none;fillColor=none;align=center;verticalAlign=middle;whiteSpace=wrap;rounded=0;sketch=1;fontSize=18;" vertex="1" parent="1">
          <mxGeometry x="-72" y="120" width="451" height="26" as="geometry" />
        </mxCell>
        <mxCell id="M0y0zlbj2SUJRoKViv4J-139" value="&lt;div style=&quot;font-family: Consolas, &amp;quot;Courier New&amp;quot;, monospace; font-size: 14px; line-height: 19px;&quot;&gt;&lt;span style=&quot;color: #800000;font-weight: bold;&quot;&gt;0001&amp;nbsp;0000&amp;nbsp;0000&amp;nbsp;0101&amp;nbsp;0100&amp;nbsp;0000&amp;nbsp;0100&amp;nbsp;0001&lt;/span&gt;&lt;/div&gt;" style="text;html=1;strokeColor=none;fillColor=none;align=center;verticalAlign=middle;whiteSpace=wrap;rounded=0;sketch=1;fontSize=18;" vertex="1" parent="1">
          <mxGeometry x="240" y="-21.75" width="324" height="22.5" as="geometry" />
        </mxCell>
        <mxCell id="M0y0zlbj2SUJRoKViv4J-145" value="&lt;span style=&quot;color: rgb(128, 0, 0); font-family: Consolas, &amp;quot;Courier New&amp;quot;, monospace; font-weight: 700;&quot;&gt;&lt;font style=&quot;font-size: 14px;&quot;&gt;0001 1100 0100 0110 1010 0101 0010 0101&lt;/font&gt;&lt;/span&gt;" style="text;html=1;strokeColor=none;fillColor=none;align=center;verticalAlign=middle;whiteSpace=wrap;rounded=0;sketch=1;fontSize=18;" vertex="1" parent="1">
          <mxGeometry x="240" y="-73" width="324" height="31" as="geometry" />
        </mxCell>
        <mxCell id="M0y0zlbj2SUJRoKViv4J-148" value="&lt;div style=&quot;font-family: Consolas, &amp;quot;Courier New&amp;quot;, monospace; line-height: 19px;&quot;&gt;&lt;span style=&quot;color: #800000;font-weight: bold;&quot;&gt;0001&amp;nbsp;0100&amp;nbsp;0100&amp;nbsp;0100&amp;nbsp;0000&amp;nbsp;0101 0000&amp;nbsp;0101&lt;/span&gt;&lt;/div&gt;" style="text;html=1;strokeColor=none;fillColor=none;align=center;verticalAlign=middle;whiteSpace=wrap;rounded=0;sketch=1;fontSize=14;" vertex="1" parent="1">
          <mxGeometry x="240" y="26.5" width="324" height="22.5" as="geometry" />
        </mxCell>
        <mxCell id="M0y0zlbj2SUJRoKViv4J-152" value="&lt;div style=&quot;font-family: Consolas, &amp;quot;Courier New&amp;quot;, monospace; line-height: 19px;&quot;&gt;&lt;span style=&quot;color: #800000;font-weight: bold;&quot;&gt;0010&amp;nbsp;0100&amp;nbsp;0100 1001 0100&amp;nbsp;0101 0100&amp;nbsp;0110&lt;/span&gt;&lt;/div&gt;" style="text;html=1;strokeColor=none;fillColor=none;align=center;verticalAlign=middle;whiteSpace=wrap;rounded=0;sketch=1;fontSize=14;" vertex="1" parent="1">
          <mxGeometry x="240" y="72" width="324" height="24" as="geometry" />
        </mxCell>
        <mxCell id="M0y0zlbj2SUJRoKViv4J-155" value="&lt;div style=&quot;font-family: Consolas, &amp;quot;Courier New&amp;quot;, monospace; line-height: 19px;&quot;&gt;&lt;span style=&quot;color: rgb(128, 0, 0);&quot;&gt;&lt;b&gt;&lt;font style=&quot;font-size: 18px;&quot;&gt;按每&amp;nbsp;2&amp;nbsp;个二进制位为一组进行分组，各组的十进制表示的就是该组的 1 的个数&lt;/font&gt;&lt;/b&gt;&lt;/span&gt;&lt;/div&gt;" style="text;html=1;strokeColor=none;fillColor=none;align=center;verticalAlign=middle;whiteSpace=wrap;rounded=0;sketch=1;fontSize=14;" vertex="1" parent="1">
          <mxGeometry x="-88" y="159" width="720" height="56" as="geometry" />
        </mxCell>
        <mxCell id="M0y0zlbj2SUJRoKViv4J-156" value="&lt;div style=&quot;font-family: Consolas, &amp;quot;Courier New&amp;quot;, monospace; line-height: 19px;&quot;&gt;&lt;span style=&quot;color: rgb(128, 0, 0); font-weight: bold;&quot;&gt;&lt;font style=&quot;font-size: 18px;&quot;&gt;input :&amp;nbsp;00 11&amp;nbsp;10 00&amp;nbsp;10 00&amp;nbsp;11 01&amp;nbsp;01 00&amp;nbsp;10 10&amp;nbsp;01 00&amp;nbsp;10 11&lt;/font&gt;&lt;/span&gt;&lt;/div&gt;" style="text;html=1;strokeColor=none;fillColor=none;align=center;verticalAlign=middle;whiteSpace=wrap;rounded=0;sketch=1;" vertex="1" parent="1">
          <mxGeometry x="-143" y="216" width="730" height="24" as="geometry" />
        </mxCell>
        <mxCell id="M0y0zlbj2SUJRoKViv4J-157" value="&lt;div style=&quot;font-family: Consolas, &amp;quot;Courier New&amp;quot;, monospace; line-height: 19px;&quot;&gt;&lt;span style=&quot;color: rgb(128, 0, 0); font-weight: bold;&quot;&gt;&lt;font style=&quot;font-size: 18px;&quot;&gt;&amp;nbsp; n&amp;nbsp; &amp;nbsp;:&amp;nbsp;00 10 01 00 01 00&amp;nbsp;10 01&amp;nbsp;01 00 01 01 01 00 01 10&lt;/font&gt;&lt;/span&gt;&lt;/div&gt;" style="text;html=1;strokeColor=none;fillColor=none;align=center;verticalAlign=middle;whiteSpace=wrap;rounded=0;sketch=1;" vertex="1" parent="1">
          <mxGeometry x="-143" y="252" width="730" height="24" as="geometry" />
        </mxCell>
        <mxCell id="M0y0zlbj2SUJRoKViv4J-158" value="&lt;div style=&quot;font-family: Consolas, &amp;quot;Courier New&amp;quot;, monospace; line-height: 19px;&quot;&gt;&lt;span style=&quot;color: rgb(128, 0, 0); font-weight: bold;&quot;&gt;&lt;font style=&quot;font-size: 18px;&quot;&gt;&amp;nbsp; 1的个数:&amp;nbsp; 0&amp;nbsp; 2&amp;nbsp; 1&amp;nbsp; 0&amp;nbsp; 1&amp;nbsp; 0&amp;nbsp; 2&amp;nbsp; 1&amp;nbsp; 1&amp;nbsp; 0&amp;nbsp; 1&amp;nbsp; 1&amp;nbsp; 1&amp;nbsp; 0&amp;nbsp; 1&amp;nbsp; 2&lt;/font&gt;&lt;/span&gt;&lt;/div&gt;" style="text;html=1;strokeColor=none;fillColor=none;align=center;verticalAlign=middle;whiteSpace=wrap;rounded=0;sketch=1;" vertex="1" parent="1">
          <mxGeometry x="-155" y="288" width="730" height="24" as="geometry" />
        </mxCell>
        <mxCell id="M0y0zlbj2SUJRoKViv4J-177" value="" style="edgeStyle=orthogonalEdgeStyle;sketch=1;orthogonalLoop=1;jettySize=auto;html=1;fontSize=18;" edge="1" source="M0y0zlbj2SUJRoKViv4J-178" target="M0y0zlbj2SUJRoKViv4J-185" parent="1">
          <mxGeometry relative="1" as="geometry" />
        </mxCell>
        <mxCell id="M0y0zlbj2SUJRoKViv4J-178" value="&lt;span style=&quot;font-family: Consolas, &amp;quot;Courier New&amp;quot;, monospace; color: rgb(0, 112, 193);&quot;&gt;(n&amp;nbsp;&lt;/span&gt;&lt;span style=&quot;font-family: Consolas, &amp;quot;Courier New&amp;quot;, monospace;&quot;&gt;&amp;amp;&lt;/span&gt;&lt;span style=&quot;font-family: Consolas, &amp;quot;Courier New&amp;quot;, monospace; color: rgb(0, 112, 193);&quot;&gt;&amp;nbsp;&lt;/span&gt;&lt;span style=&quot;font-family: Consolas, &amp;quot;Courier New&amp;quot;, monospace; color: rgb(9, 134, 88);&quot;&gt;0x33333333&lt;/span&gt;&lt;span style=&quot;font-family: Consolas, &amp;quot;Courier New&amp;quot;, monospace; color: rgb(0, 112, 193);&quot;&gt;)&lt;/span&gt;" style="text;html=1;strokeColor=none;fillColor=none;align=center;verticalAlign=middle;whiteSpace=wrap;rounded=0;sketch=1;fontSize=18;" vertex="1" parent="1">
          <mxGeometry x="-58" y="455" width="170" height="31" as="geometry" />
        </mxCell>
        <mxCell id="M0y0zlbj2SUJRoKViv4J-179" value="" style="edgeStyle=orthogonalEdgeStyle;sketch=1;orthogonalLoop=1;jettySize=auto;html=1;fontSize=18;" edge="1" source="M0y0zlbj2SUJRoKViv4J-180" target="M0y0zlbj2SUJRoKViv4J-186" parent="1">
          <mxGeometry relative="1" as="geometry" />
        </mxCell>
        <mxCell id="M0y0zlbj2SUJRoKViv4J-180" value="&lt;span style=&quot;font-family: Consolas, &amp;quot;Courier New&amp;quot;, monospace; color: rgb(0, 112, 193);&quot;&gt;(n&amp;nbsp;&lt;/span&gt;&lt;span style=&quot;font-family: Consolas, &amp;quot;Courier New&amp;quot;, monospace;&quot;&gt;&amp;gt;&amp;gt;&lt;/span&gt;&lt;span style=&quot;font-family: Consolas, &amp;quot;Courier New&amp;quot;, monospace; color: rgb(0, 112, 193);&quot;&gt;&amp;nbsp;&lt;/span&gt;&lt;span style=&quot;font-family: Consolas, &amp;quot;Courier New&amp;quot;, monospace;&quot;&gt;&lt;font color=&quot;#098658&quot;&gt;2&lt;/font&gt;&lt;/span&gt;&lt;span style=&quot;font-family: Consolas, &amp;quot;Courier New&amp;quot;, monospace; color: rgb(0, 112, 193);&quot;&gt;)&lt;/span&gt;" style="text;html=1;strokeColor=none;fillColor=none;align=center;verticalAlign=middle;whiteSpace=wrap;rounded=0;sketch=1;fontSize=18;" vertex="1" parent="1">
          <mxGeometry x="-58" y="407" width="93" height="32" as="geometry" />
        </mxCell>
        <mxCell id="M0y0zlbj2SUJRoKViv4J-181" value="" style="edgeStyle=orthogonalEdgeStyle;sketch=1;orthogonalLoop=1;jettySize=auto;html=1;fontSize=14;" edge="1" source="M0y0zlbj2SUJRoKViv4J-182" target="M0y0zlbj2SUJRoKViv4J-187" parent="1">
          <mxGeometry relative="1" as="geometry" />
        </mxCell>
        <mxCell id="M0y0zlbj2SUJRoKViv4J-182" value="&lt;span style=&quot;font-family: Consolas, &amp;quot;Courier New&amp;quot;, monospace; color: rgb(0, 112, 193);&quot;&gt;((n&amp;nbsp;&lt;/span&gt;&lt;span style=&quot;font-family: Consolas, &amp;quot;Courier New&amp;quot;, monospace;&quot;&gt;&amp;gt;&amp;gt;&lt;/span&gt;&lt;span style=&quot;font-family: Consolas, &amp;quot;Courier New&amp;quot;, monospace; color: rgb(0, 112, 193);&quot;&gt;&amp;nbsp;&lt;/span&gt;&lt;span style=&quot;font-family: Consolas, &amp;quot;Courier New&amp;quot;, monospace; color: rgb(9, 134, 88);&quot;&gt;2&lt;/span&gt;&lt;span style=&quot;font-family: Consolas, &amp;quot;Courier New&amp;quot;, monospace; color: rgb(0, 112, 193);&quot;&gt;)&amp;nbsp;&lt;/span&gt;&lt;span style=&quot;font-family: Consolas, &amp;quot;Courier New&amp;quot;, monospace;&quot;&gt;&amp;amp;&lt;/span&gt;&lt;span style=&quot;font-family: Consolas, &amp;quot;Courier New&amp;quot;, monospace; color: rgb(0, 112, 193);&quot;&gt;&amp;nbsp;&lt;/span&gt;&lt;span style=&quot;font-family: Consolas, &amp;quot;Courier New&amp;quot;, monospace; color: rgb(9, 134, 88);&quot;&gt;0x33333333&lt;/span&gt;&lt;span style=&quot;font-family: Consolas, &amp;quot;Courier New&amp;quot;, monospace; color: rgb(0, 112, 193);&quot;&gt;)&lt;/span&gt;" style="text;html=1;strokeColor=none;fillColor=none;align=center;verticalAlign=middle;whiteSpace=wrap;rounded=0;sketch=1;fontSize=18;" vertex="1" parent="1">
          <mxGeometry x="-58" y="503" width="238" height="33" as="geometry" />
        </mxCell>
        <mxCell id="M0y0zlbj2SUJRoKViv4J-183" style="edgeStyle=orthogonalEdgeStyle;sketch=1;orthogonalLoop=1;jettySize=auto;html=1;entryX=0;entryY=0.5;entryDx=0;entryDy=0;fontSize=14;" edge="1" source="M0y0zlbj2SUJRoKViv4J-184" target="M0y0zlbj2SUJRoKViv4J-188" parent="1">
          <mxGeometry relative="1" as="geometry" />
        </mxCell>
        <mxCell id="M0y0zlbj2SUJRoKViv4J-184" value="&lt;div style=&quot;font-family: Consolas, &amp;quot;Courier New&amp;quot;, monospace; line-height: 19px;&quot;&gt;&lt;font style=&quot;font-size: 18px;&quot;&gt;&lt;span style=&quot;color: rgb(0, 112, 193);&quot;&gt;(n&amp;nbsp;&lt;/span&gt;&amp;amp;&lt;span style=&quot;color: rgb(0, 112, 193);&quot;&gt;&amp;nbsp;&lt;/span&gt;&lt;span style=&quot;color: rgb(9, 134, 88);&quot;&gt;0x33333333&lt;/span&gt;&lt;span style=&quot;color: rgb(0, 112, 193);&quot;&gt;)&amp;nbsp;&lt;/span&gt;+&lt;span style=&quot;color: rgb(0, 112, 193);&quot;&gt;&amp;nbsp;((n&amp;nbsp;&lt;/span&gt;&amp;gt;&amp;gt;&lt;span style=&quot;color: rgb(0, 112, 193);&quot;&gt;&amp;nbsp;&lt;/span&gt;&lt;span style=&quot;color: rgb(9, 134, 88);&quot;&gt;2&lt;/span&gt;&lt;span style=&quot;color: rgb(0, 112, 193);&quot;&gt;)&amp;nbsp;&lt;/span&gt;&amp;amp;&lt;span style=&quot;color: rgb(0, 112, 193);&quot;&gt;&amp;nbsp;&lt;/span&gt;&lt;span style=&quot;color: rgb(9, 134, 88);&quot;&gt;0x33333333&lt;/span&gt;&lt;span style=&quot;color: rgb(0, 112, 193);&quot;&gt;)&lt;/span&gt;&lt;/font&gt;&lt;/div&gt;" style="text;html=1;strokeColor=none;fillColor=none;align=center;verticalAlign=middle;whiteSpace=wrap;rounded=0;sketch=1;fontSize=18;" vertex="1" parent="1">
          <mxGeometry x="-72" y="601" width="451" height="26" as="geometry" />
        </mxCell>
        <mxCell id="M0y0zlbj2SUJRoKViv4J-185" value="&lt;div style=&quot;font-family: Consolas, &amp;quot;Courier New&amp;quot;, monospace; font-size: 14px; line-height: 19px;&quot;&gt;&lt;span style=&quot;color: #800000;font-weight: bold;&quot;&gt;0010 0000&amp;nbsp;0000&amp;nbsp;0001&amp;nbsp;0000&amp;nbsp;0001 0000&amp;nbsp;0010&lt;/span&gt;&lt;/div&gt;" style="text;html=1;strokeColor=none;fillColor=none;align=center;verticalAlign=middle;whiteSpace=wrap;rounded=0;sketch=1;fontSize=18;" vertex="1" parent="1">
          <mxGeometry x="240" y="459.25" width="324" height="22.5" as="geometry" />
        </mxCell>
        <mxCell id="M0y0zlbj2SUJRoKViv4J-186" value="&lt;span style=&quot;color: rgb(128, 0, 0); font-family: Consolas, &amp;quot;Courier New&amp;quot;, monospace; font-weight: 700;&quot;&gt;&lt;font style=&quot;font-size: 14px;&quot;&gt;0000 1001 0001 0010 0101 0001 0101 0001&lt;/font&gt;&lt;/span&gt;" style="text;html=1;strokeColor=none;fillColor=none;align=center;verticalAlign=middle;whiteSpace=wrap;rounded=0;sketch=1;fontSize=18;" vertex="1" parent="1">
          <mxGeometry x="240" y="408" width="324" height="31" as="geometry" />
        </mxCell>
        <mxCell id="M0y0zlbj2SUJRoKViv4J-187" value="&lt;div style=&quot;font-family: Consolas, &amp;quot;Courier New&amp;quot;, monospace; line-height: 19px;&quot;&gt;&lt;span style=&quot;color: #800000;font-weight: bold;&quot;&gt;0000 0001 0001 0010&amp;nbsp;0001 0001 0001 0001&lt;/span&gt;&lt;/div&gt;" style="text;html=1;strokeColor=none;fillColor=none;align=center;verticalAlign=middle;whiteSpace=wrap;rounded=0;sketch=1;fontSize=14;" vertex="1" parent="1">
          <mxGeometry x="240" y="507.5" width="324" height="22.5" as="geometry" />
        </mxCell>
        <mxCell id="M0y0zlbj2SUJRoKViv4J-188" value="&lt;div style=&quot;font-family: Consolas, &amp;quot;Courier New&amp;quot;, monospace; line-height: 19px;&quot;&gt;&lt;span style=&quot;color: #800000;font-weight: bold;&quot;&gt;0010&amp;nbsp;0001 0001 0011 0001 0010 0001 0011&lt;/span&gt;&lt;/div&gt;" style="text;html=1;strokeColor=none;fillColor=none;align=center;verticalAlign=middle;whiteSpace=wrap;rounded=0;sketch=1;fontSize=14;" vertex="1" parent="1">
          <mxGeometry x="240" y="553" width="324" height="24" as="geometry" />
        </mxCell>
        <mxCell id="M0y0zlbj2SUJRoKViv4J-189" value="&lt;div style=&quot;font-family: Consolas, &amp;quot;Courier New&amp;quot;, monospace; line-height: 19px;&quot;&gt;&lt;span style=&quot;color: rgb(128, 0, 0);&quot;&gt;&lt;b&gt;&lt;font style=&quot;font-size: 18px;&quot;&gt;按每 4 个二进制位为一组进行分组，各组的十进制表示的就是该组的 1 的个数&lt;/font&gt;&lt;/b&gt;&lt;/span&gt;&lt;/div&gt;" style="text;html=1;strokeColor=none;fillColor=none;align=center;verticalAlign=middle;whiteSpace=wrap;rounded=0;sketch=1;fontSize=14;" vertex="1" parent="1">
          <mxGeometry x="-88" y="641" width="721" height="44" as="geometry" />
        </mxCell>
        <mxCell id="M0y0zlbj2SUJRoKViv4J-190" value="&lt;div style=&quot;font-family: Consolas, &amp;quot;Courier New&amp;quot;, monospace; line-height: 19px;&quot;&gt;&lt;span style=&quot;color: rgb(128, 0, 0); font-weight: bold;&quot;&gt;&lt;font style=&quot;font-size: 18px;&quot;&gt;input :&amp;nbsp;0011&amp;nbsp;1000&amp;nbsp;1000&amp;nbsp;1101&amp;nbsp;0100&amp;nbsp;1010&amp;nbsp;0100&amp;nbsp;1011&lt;/font&gt;&lt;/span&gt;&lt;/div&gt;" style="text;html=1;strokeColor=none;fillColor=none;align=center;verticalAlign=middle;whiteSpace=wrap;rounded=0;sketch=1;" vertex="1" parent="1">
          <mxGeometry x="-182" y="697" width="730" height="24" as="geometry" />
        </mxCell>
        <mxCell id="M0y0zlbj2SUJRoKViv4J-191" value="&lt;div style=&quot;font-family: Consolas, &amp;quot;Courier New&amp;quot;, monospace; line-height: 19px;&quot;&gt;&lt;span style=&quot;color: rgb(128, 0, 0); font-weight: bold;&quot;&gt;&lt;font style=&quot;font-size: 18px;&quot;&gt;&amp;nbsp; n&amp;nbsp; &amp;nbsp;:&amp;nbsp;0010 0001 0001 0011 0001 0010 0001 0011&lt;/font&gt;&lt;/span&gt;&lt;/div&gt;" style="text;html=1;strokeColor=none;fillColor=none;align=center;verticalAlign=middle;whiteSpace=wrap;rounded=0;sketch=1;" vertex="1" parent="1">
          <mxGeometry x="-181" y="733" width="730" height="24" as="geometry" />
        </mxCell>
        <mxCell id="M0y0zlbj2SUJRoKViv4J-192" value="&lt;div style=&quot;font-family: Consolas, &amp;quot;Courier New&amp;quot;, monospace; line-height: 19px;&quot;&gt;&lt;span style=&quot;color: rgb(128, 0, 0); font-weight: bold;&quot;&gt;&lt;font style=&quot;font-size: 18px;&quot;&gt;&amp;nbsp; 1的个数:&amp;nbsp; &amp;nbsp;2&amp;nbsp; &amp;nbsp; 1&amp;nbsp; &amp;nbsp; 1&amp;nbsp; &amp;nbsp; 3&amp;nbsp; &amp;nbsp; 1&amp;nbsp; &amp;nbsp; 2&amp;nbsp; &amp;nbsp; 1&amp;nbsp; &amp;nbsp; 3&lt;/font&gt;&lt;/span&gt;&lt;/div&gt;" style="text;html=1;strokeColor=none;fillColor=none;align=center;verticalAlign=middle;whiteSpace=wrap;rounded=0;sketch=1;" vertex="1" parent="1">
          <mxGeometry x="-198" y="768" width="730" height="24" as="geometry" />
        </mxCell>
        <mxCell id="M0y0zlbj2SUJRoKViv4J-194" value="&lt;div style=&quot;font-family: Consolas, &amp;quot;Courier New&amp;quot;, monospace; line-height: 19px;&quot;&gt;&lt;span style=&quot;color: rgb(128, 0, 0); font-weight: bold;&quot;&gt;&lt;font style=&quot;font-size: 18px;&quot;&gt;&amp;nbsp; n :&amp;nbsp;0010 0100 0100&amp;nbsp;1001&amp;nbsp;0100 0101 0100 0110&lt;/font&gt;&lt;/span&gt;&lt;/div&gt;" style="text;html=1;strokeColor=none;fillColor=none;align=center;verticalAlign=middle;whiteSpace=wrap;rounded=0;sketch=1;" vertex="1" parent="1">
          <mxGeometry x="-211.5" y="367" width="730" height="24" as="geometry" />
        </mxCell>
      </root>
    </mxGraphModel>
  </diagram>
</mxfile>
